<?xml version="1.0" encoding="UTF-8" standalone="no"?>
<!DOCTYPE svg PUBLIC "-//W3C//DTD SVG 1.1//EN"
 "http://www.w3.org/Graphics/SVG/1.1/DTD/svg11.dtd">
<!-- Generated by graphviz version 2.38.0 (20140413.2041)
 -->
<!-- Title: output Pages: 1 -->
<svg width="647pt" height="1099pt"
 viewBox="0.00 0.00 646.50 1099.00" xmlns="http://www.w3.org/2000/svg" xmlns:xlink="http://www.w3.org/1999/xlink">
<g id="graph0" class="graph" transform="scale(1 1) rotate(0) translate(4 1095)">
<title>output</title>
<polygon fill="white" stroke="none" points="-4,4 -4,-1095 642.5,-1095 642.5,4 -4,4"/>
<!-- Legend -->
<g id="node1" class="node"><title>Legend</title>
<polygon fill="#e0e0e0" stroke="none" points="8.5,-1036.5 8.5,-1059.5 209.5,-1059.5 209.5,-1036.5 8.5,-1036.5"/>
<polygon fill="none" stroke="black" points="8.5,-1036.5 8.5,-1059.5 209.5,-1059.5 209.5,-1036.5 8.5,-1036.5"/>
<text text-anchor="start" x="93" y="-1044.3" font-family="Times,serif" font-size="14.00">Layer</text>
<polygon fill="#88ffff" stroke="none" points="8.5,-998.5 8.5,-1036.5 89.5,-1036.5 89.5,-998.5 8.5,-998.5"/>
<polygon fill="none" stroke="black" points="8.5,-998.5 8.5,-1036.5 89.5,-1036.5 89.5,-998.5 8.5,-998.5"/>
<text text-anchor="start" x="12.5" y="-1021.3" font-family="Times,serif" font-size="14.00"> Complexity </text>
<text text-anchor="start" x="15" y="-1006.3" font-family="Times,serif" font-size="14.00"> (MFLOPs) </text>
<polygon fill="#ff88ff" stroke="none" points="89.5,-998.5 89.5,-1036.5 164.5,-1036.5 164.5,-998.5 89.5,-998.5"/>
<polygon fill="none" stroke="black" points="89.5,-998.5 89.5,-1036.5 164.5,-1036.5 164.5,-998.5 89.5,-998.5"/>
<text text-anchor="start" x="93.5" y="-1021.3" font-family="Times,serif" font-size="14.00"> Bandwidth </text>
<text text-anchor="start" x="103" y="-1006.3" font-family="Times,serif" font-size="14.00"> (MB/s) </text>
<polygon fill="#ffff88" stroke="none" points="164.5,-998.5 164.5,-1036.5 209.5,-1036.5 209.5,-998.5 164.5,-998.5"/>
<polygon fill="none" stroke="black" points="164.5,-998.5 164.5,-1036.5 209.5,-1036.5 209.5,-998.5 164.5,-998.5"/>
<text text-anchor="start" x="168.5" y="-1021.3" font-family="Times,serif" font-size="14.00"> Time </text>
<text text-anchor="start" x="172" y="-1006.3" font-family="Times,serif" font-size="14.00"> (ms)</text>
</g>
<!-- Input -->
<g id="node2" class="node"><title>Input</title>
<ellipse fill="none" stroke="black" cx="314.5" cy="-1029.5" rx="79.8859" ry="18"/>
<text text-anchor="middle" x="314.5" y="-1025.8" font-family="Times,serif" font-size="14.00">input: (227, 227, 3)</text>
</g>
<!-- data -->
<g id="node3" class="node"><title>data</title>
<polygon fill="#a3a3a3" stroke="none" points="117.5,-777 117.5,-800 300.5,-800 300.5,-777 117.5,-777"/>
<polygon fill="none" stroke="black" points="117.5,-777 117.5,-800 300.5,-800 300.5,-777 117.5,-777"/>
<text text-anchor="start" x="197.5" y="-784.8" font-family="Times,serif" font-size="14.00">data</text>
<polygon fill="#dddddd" stroke="none" points="117.5,-754 117.5,-777 300.5,-777 300.5,-754 117.5,-754"/>
<polygon fill="none" stroke="black" points="117.5,-754 117.5,-777 300.5,-777 300.5,-754 117.5,-754"/>
<text text-anchor="start" x="173" y="-761.8" font-family="Times,serif" font-size="14.00">(3, 227, 227)</text>
<polygon fill="#b1f1ef" stroke="none" points="117.5,-716 117.5,-754 193.5,-754 193.5,-716 117.5,-716"/>
<polygon fill="none" stroke="black" points="117.5,-716 117.5,-754 193.5,-754 193.5,-716 117.5,-716"/>
<text text-anchor="start" x="143" y="-738.8" font-family="Times,serif" font-size="14.00"> 0.0 </text>
<text text-anchor="start" x="121.5" y="-723.8" font-family="Times,serif" font-size="14.00"> (MFLOPs) </text>
<polygon fill="#b1179d" stroke="none" points="193.5,-716 193.5,-754 260.5,-754 260.5,-716 193.5,-716"/>
<polygon fill="none" stroke="black" points="193.5,-716 193.5,-754 260.5,-754 260.5,-716 193.5,-716"/>
<text text-anchor="start" x="197.5" y="-738.8" font-family="Times,serif" font-size="14.00"> 92335.19 </text>
<text text-anchor="start" x="203" y="-723.8" font-family="Times,serif" font-size="14.00"> (MB/s) </text>
<polygon fill="#ffffcc" stroke="none" points="260.5,-716 260.5,-754 300.5,-754 300.5,-716 260.5,-716"/>
<polygon fill="none" stroke="black" points="260.5,-716 260.5,-754 300.5,-754 300.5,-716 260.5,-716"/>
<text text-anchor="start" x="264.5" y="-738.8" font-family="Times,serif" font-size="14.00"> 0.00 </text>
<text text-anchor="start" x="265.5" y="-723.8" font-family="Times,serif" font-size="14.00"> (ms)</text>
</g>
<!-- Input&#45;&gt;data -->
<g id="edge1" class="edge"><title>Input&#45;&gt;data</title>
<path fill="none" stroke="black" d="M307.708,-1011.23C292.332,-972.139 254.315,-875.482 230.059,-813.812"/>
<polygon fill="black" stroke="black" points="233.207,-812.254 226.289,-804.229 226.693,-814.816 233.207,-812.254"/>
</g>
<!-- conv1 -->
<g id="node4" class="node"><title>conv1</title>
<polygon fill="#a3a3a3" stroke="none" points="310.5,-905 310.5,-928 486.5,-928 486.5,-905 310.5,-905"/>
<polygon fill="none" stroke="black" points="310.5,-905 310.5,-928 486.5,-928 486.5,-905 310.5,-905"/>
<text text-anchor="start" x="381.5" y="-912.8" font-family="Times,serif" font-size="14.00">conv1</text>
<polygon fill="#dddddd" stroke="none" points="310.5,-882 310.5,-905 486.5,-905 486.5,-882 310.5,-882"/>
<polygon fill="none" stroke="black" points="310.5,-882 310.5,-905 486.5,-905 486.5,-882 310.5,-882"/>
<text text-anchor="start" x="366" y="-889.8" font-family="Times,serif" font-size="14.00">(96, 55, 55)</text>
<polygon fill="#35d2c8" stroke="none" points="310.5,-844 310.5,-882 386.5,-882 386.5,-844 310.5,-844"/>
<polygon fill="none" stroke="black" points="310.5,-844 310.5,-882 386.5,-882 386.5,-844 310.5,-844"/>
<text text-anchor="start" x="319" y="-866.8" font-family="Times,serif" font-size="14.00"> 210.8304 </text>
<text text-anchor="start" x="314.5" y="-851.8" font-family="Times,serif" font-size="14.00"> (MFLOPs) </text>
<polygon fill="#f9d5f5" stroke="none" points="386.5,-844 386.5,-882 446.5,-882 446.5,-844 386.5,-844"/>
<polygon fill="none" stroke="black" points="386.5,-844 386.5,-882 446.5,-882 446.5,-844 386.5,-844"/>
<text text-anchor="start" x="390.5" y="-866.8" font-family="Times,serif" font-size="14.00"> 7384.11 </text>
<text text-anchor="start" x="392.5" y="-851.8" font-family="Times,serif" font-size="14.00"> (MB/s) </text>
<polygon fill="#ffff30" stroke="none" points="446.5,-844 446.5,-882 486.5,-882 486.5,-844 446.5,-844"/>
<polygon fill="none" stroke="black" points="446.5,-844 446.5,-882 486.5,-882 486.5,-844 446.5,-844"/>
<text text-anchor="start" x="450.5" y="-866.8" font-family="Times,serif" font-size="14.00"> 4.84 </text>
<text text-anchor="start" x="451.5" y="-851.8" font-family="Times,serif" font-size="14.00"> (ms)</text>
</g>
<!-- Input&#45;&gt;conv1 -->
<g id="edge2" class="edge"><title>Input&#45;&gt;conv1</title>
<path fill="none" stroke="black" d="M324.632,-1011.43C335.015,-993.942 351.701,-965.833 366.59,-940.754"/>
<polygon fill="black" stroke="black" points="369.673,-942.417 371.768,-932.031 363.653,-938.844 369.673,-942.417"/>
</g>
<!-- Output -->
<g id="node13" class="node"><title>Output</title>
<ellipse fill="none" stroke="black" cx="270.5" cy="-18" rx="92.8835" ry="18"/>
<text text-anchor="middle" x="270.5" y="-14.3" font-family="Times,serif" font-size="14.00">output: [227, 227, 259]</text>
</g>
<!-- data&#45;&gt;Output -->
<g id="edge12" class="edge"><title>data&#45;&gt;Output</title>
<path fill="none" stroke="black" d="M208.5,-711.576C208.5,-660.757 208.5,-575.981 208.5,-503 208.5,-503 208.5,-503 208.5,-245 208.5,-167.649 197.699,-143.38 227.5,-72 231.79,-61.7253 238.724,-51.8525 245.783,-43.4709"/>
<polygon fill="black" stroke="black" points="248.466,-45.7212 252.507,-35.9275 243.241,-41.0633 248.466,-45.7212"/>
</g>
<!-- norm1 -->
<g id="node5" class="node"><title>norm1</title>
<polygon fill="#a3a3a3" stroke="none" points="334.5,-777 334.5,-800 506.5,-800 506.5,-777 334.5,-777"/>
<polygon fill="none" stroke="black" points="334.5,-777 334.5,-800 506.5,-800 506.5,-777 334.5,-777"/>
<text text-anchor="start" x="402" y="-784.8" font-family="Times,serif" font-size="14.00">norm1</text>
<polygon fill="#dddddd" stroke="none" points="334.5,-754 334.5,-777 506.5,-777 506.5,-754 334.5,-754"/>
<polygon fill="none" stroke="black" points="334.5,-754 334.5,-777 506.5,-777 506.5,-754 334.5,-754"/>
<text text-anchor="start" x="388" y="-761.8" font-family="Times,serif" font-size="14.00">(96, 55, 55)</text>
<polygon fill="#b1f1ef" stroke="none" points="334.5,-716 334.5,-754 410.5,-754 410.5,-716 334.5,-716"/>
<polygon fill="none" stroke="black" points="334.5,-716 334.5,-754 410.5,-754 410.5,-716 334.5,-716"/>
<text text-anchor="start" x="360" y="-738.8" font-family="Times,serif" font-size="14.00"> 0.0 </text>
<text text-anchor="start" x="338.5" y="-723.8" font-family="Times,serif" font-size="14.00"> (MFLOPs) </text>
<polygon fill="#fee4fb" stroke="none" points="410.5,-716 410.5,-754 466.5,-754 466.5,-716 410.5,-716"/>
<polygon fill="none" stroke="black" points="410.5,-716 410.5,-754 466.5,-754 466.5,-716 410.5,-716"/>
<text text-anchor="start" x="415.5" y="-738.8" font-family="Times,serif" font-size="14.00"> 722.18 </text>
<text text-anchor="start" x="414.5" y="-723.8" font-family="Times,serif" font-size="14.00"> (MB/s) </text>
<polygon fill="#ffffb3" stroke="none" points="466.5,-716 466.5,-754 506.5,-754 506.5,-716 466.5,-716"/>
<polygon fill="none" stroke="black" points="466.5,-716 466.5,-754 506.5,-754 506.5,-716 466.5,-716"/>
<text text-anchor="start" x="470.5" y="-738.8" font-family="Times,serif" font-size="14.00"> 0.77 </text>
<text text-anchor="start" x="471.5" y="-723.8" font-family="Times,serif" font-size="14.00"> (ms)</text>
</g>
<!-- conv1&#45;&gt;norm1 -->
<g id="edge3" class="edge"><title>conv1&#45;&gt;norm1</title>
<path fill="none" stroke="black" d="M406.38,-839.867C407.834,-831.543 409.366,-822.766 410.864,-814.185"/>
<polygon fill="black" stroke="black" points="414.328,-814.694 412.601,-804.241 407.433,-813.49 414.328,-814.694"/>
</g>
<!-- pool1 -->
<g id="node6" class="node"><title>pool1</title>
<polygon fill="#a3a3a3" stroke="none" points="332.5,-649 332.5,-672 508.5,-672 508.5,-649 332.5,-649"/>
<polygon fill="none" stroke="black" points="332.5,-649 332.5,-672 508.5,-672 508.5,-649 332.5,-649"/>
<text text-anchor="start" x="405" y="-656.8" font-family="Times,serif" font-size="14.00">pool1</text>
<polygon fill="#dddddd" stroke="none" points="332.5,-626 332.5,-649 508.5,-649 508.5,-626 332.5,-626"/>
<polygon fill="none" stroke="black" points="332.5,-626 332.5,-649 508.5,-649 508.5,-626 332.5,-626"/>
<text text-anchor="start" x="388" y="-633.8" font-family="Times,serif" font-size="14.00">(96, 27, 27)</text>
<polygon fill="#b0f0ee" stroke="none" points="332.5,-588 332.5,-626 408.5,-626 408.5,-588 332.5,-588"/>
<polygon fill="none" stroke="black" points="332.5,-588 332.5,-626 408.5,-626 408.5,-588 332.5,-588"/>
<text text-anchor="start" x="341" y="-610.8" font-family="Times,serif" font-size="14.00"> 0.629856 </text>
<text text-anchor="start" x="336.5" y="-595.8" font-family="Times,serif" font-size="14.00"> (MFLOPs) </text>
<polygon fill="#fee3fb" stroke="none" points="408.5,-588 408.5,-626 468.5,-626 468.5,-588 408.5,-588"/>
<polygon fill="none" stroke="black" points="408.5,-588 408.5,-626 468.5,-626 468.5,-588 408.5,-588"/>
<text text-anchor="start" x="412.5" y="-610.8" font-family="Times,serif" font-size="14.00"> 1229.48 </text>
<text text-anchor="start" x="414.5" y="-595.8" font-family="Times,serif" font-size="14.00"> (MB/s) </text>
<polygon fill="#ffffbd" stroke="none" points="468.5,-588 468.5,-626 508.5,-626 508.5,-588 468.5,-588"/>
<polygon fill="none" stroke="black" points="468.5,-588 468.5,-626 508.5,-626 508.5,-588 468.5,-588"/>
<text text-anchor="start" x="472.5" y="-610.8" font-family="Times,serif" font-size="14.00"> 0.45 </text>
<text text-anchor="start" x="473.5" y="-595.8" font-family="Times,serif" font-size="14.00"> (ms)</text>
</g>
<!-- norm1&#45;&gt;pool1 -->
<g id="edge4" class="edge"><title>norm1&#45;&gt;pool1</title>
<path fill="none" stroke="black" d="M420.5,-711.867C420.5,-703.634 420.5,-694.957 420.5,-686.465"/>
<polygon fill="black" stroke="black" points="424,-686.241 420.5,-676.241 417,-686.241 424,-686.241"/>
</g>
<!-- pool1_s0 -->
<g id="node7" class="node"><title>pool1_s0</title>
<polygon fill="#a3a3a3" stroke="none" points="244.5,-521 244.5,-544 420.5,-544 420.5,-521 244.5,-521"/>
<polygon fill="none" stroke="black" points="244.5,-521 244.5,-544 420.5,-544 420.5,-521 244.5,-521"/>
<text text-anchor="start" x="307.5" y="-528.8" font-family="Times,serif" font-size="14.00">pool1_s0</text>
<polygon fill="#dddddd" stroke="none" points="244.5,-498 244.5,-521 420.5,-521 420.5,-498 244.5,-498"/>
<polygon fill="none" stroke="black" points="244.5,-498 244.5,-521 420.5,-521 420.5,-498 244.5,-498"/>
<text text-anchor="start" x="300" y="-505.8" font-family="Times,serif" font-size="14.00">(48, 27, 27)</text>
<polygon fill="#b1f1ef" stroke="none" points="244.5,-460 244.5,-498 320.5,-498 320.5,-460 244.5,-460"/>
<polygon fill="none" stroke="black" points="244.5,-460 244.5,-498 320.5,-498 320.5,-460 244.5,-460"/>
<text text-anchor="start" x="270" y="-482.8" font-family="Times,serif" font-size="14.00"> 0.0 </text>
<text text-anchor="start" x="248.5" y="-467.8" font-family="Times,serif" font-size="14.00"> (MFLOPs) </text>
<polygon fill="#fee3fb" stroke="none" points="320.5,-460 320.5,-498 380.5,-498 380.5,-460 320.5,-460"/>
<polygon fill="none" stroke="black" points="320.5,-460 320.5,-498 380.5,-498 380.5,-460 320.5,-460"/>
<text text-anchor="start" x="324.5" y="-482.8" font-family="Times,serif" font-size="14.00"> 1381.79 </text>
<text text-anchor="start" x="326.5" y="-467.8" font-family="Times,serif" font-size="14.00"> (MB/s) </text>
<polygon fill="#ffffca" stroke="none" points="380.5,-460 380.5,-498 420.5,-498 420.5,-460 380.5,-460"/>
<polygon fill="none" stroke="black" points="380.5,-460 380.5,-498 420.5,-498 420.5,-460 380.5,-460"/>
<text text-anchor="start" x="384.5" y="-482.8" font-family="Times,serif" font-size="14.00"> 0.05 </text>
<text text-anchor="start" x="385.5" y="-467.8" font-family="Times,serif" font-size="14.00"> (ms)</text>
</g>
<!-- pool1&#45;&gt;pool1_s0 -->
<g id="edge5" class="edge"><title>pool1&#45;&gt;pool1_s0</title>
<path fill="none" stroke="black" d="M388.979,-583.867C382.786,-575.001 376.234,-565.619 369.871,-556.509"/>
<polygon fill="black" stroke="black" points="372.693,-554.436 364.097,-548.241 366.954,-558.444 372.693,-554.436"/>
</g>
<!-- pool1_s1 -->
<g id="node9" class="node"><title>pool1_s1</title>
<polygon fill="#a3a3a3" stroke="none" points="454.5,-521 454.5,-544 630.5,-544 630.5,-521 454.5,-521"/>
<polygon fill="none" stroke="black" points="454.5,-521 454.5,-544 630.5,-544 630.5,-521 454.5,-521"/>
<text text-anchor="start" x="517.5" y="-528.8" font-family="Times,serif" font-size="14.00">pool1_s1</text>
<polygon fill="#dddddd" stroke="none" points="454.5,-498 454.5,-521 630.5,-521 630.5,-498 454.5,-498"/>
<polygon fill="none" stroke="black" points="454.5,-498 454.5,-521 630.5,-521 630.5,-498 454.5,-498"/>
<text text-anchor="start" x="510" y="-505.8" font-family="Times,serif" font-size="14.00">(48, 27, 27)</text>
<polygon fill="#b1f1ef" stroke="none" points="454.5,-460 454.5,-498 530.5,-498 530.5,-460 454.5,-460"/>
<polygon fill="none" stroke="black" points="454.5,-460 454.5,-498 530.5,-498 530.5,-460 454.5,-460"/>
<text text-anchor="start" x="480" y="-482.8" font-family="Times,serif" font-size="14.00"> 0.0 </text>
<text text-anchor="start" x="458.5" y="-467.8" font-family="Times,serif" font-size="14.00"> (MFLOPs) </text>
<polygon fill="#fee3fb" stroke="none" points="530.5,-460 530.5,-498 590.5,-498 590.5,-460 530.5,-460"/>
<polygon fill="none" stroke="black" points="530.5,-460 530.5,-498 590.5,-498 590.5,-460 530.5,-460"/>
<text text-anchor="start" x="534.5" y="-482.8" font-family="Times,serif" font-size="14.00"> 1462.36 </text>
<text text-anchor="start" x="536.5" y="-467.8" font-family="Times,serif" font-size="14.00"> (MB/s) </text>
<polygon fill="#ffffca" stroke="none" points="590.5,-460 590.5,-498 630.5,-498 630.5,-460 590.5,-460"/>
<polygon fill="none" stroke="black" points="590.5,-460 590.5,-498 630.5,-498 630.5,-460 590.5,-460"/>
<text text-anchor="start" x="594.5" y="-482.8" font-family="Times,serif" font-size="14.00"> 0.05 </text>
<text text-anchor="start" x="595.5" y="-467.8" font-family="Times,serif" font-size="14.00"> (ms)</text>
</g>
<!-- pool1&#45;&gt;pool1_s1 -->
<g id="edge7" class="edge"><title>pool1&#45;&gt;pool1_s1</title>
<path fill="none" stroke="black" d="M464.2,-583.867C473.048,-574.729 482.425,-565.045 491.499,-555.673"/>
<polygon fill="black" stroke="black" points="494.253,-557.86 498.695,-548.241 489.224,-552.991 494.253,-557.86"/>
</g>
<!-- conv2_p0 -->
<g id="node8" class="node"><title>conv2_p0</title>
<polygon fill="#a3a3a3" stroke="none" points="246.5,-393 246.5,-416 418.5,-416 418.5,-393 246.5,-393"/>
<polygon fill="none" stroke="black" points="246.5,-393 246.5,-416 418.5,-416 418.5,-393 246.5,-393"/>
<text text-anchor="start" x="305.5" y="-400.8" font-family="Times,serif" font-size="14.00">conv2_p0</text>
<polygon fill="#dddddd" stroke="none" points="246.5,-370 246.5,-393 418.5,-393 418.5,-370 246.5,-370"/>
<polygon fill="none" stroke="black" points="246.5,-370 246.5,-393 418.5,-393 418.5,-370 246.5,-370"/>
<text text-anchor="start" x="296.5" y="-377.8" font-family="Times,serif" font-size="14.00">(128, 27, 27)</text>
<polygon fill="#2ed1c6" stroke="none" points="246.5,-332 246.5,-370 322.5,-370 322.5,-332 246.5,-332"/>
<polygon fill="none" stroke="black" points="246.5,-332 246.5,-370 322.5,-370 322.5,-332 246.5,-332"/>
<text text-anchor="start" x="255" y="-354.8" font-family="Times,serif" font-size="14.00"> 223.9488 </text>
<text text-anchor="start" x="250.5" y="-339.8" font-family="Times,serif" font-size="14.00"> (MFLOPs) </text>
<polygon fill="#fee4fb" stroke="none" points="322.5,-332 322.5,-370 378.5,-370 378.5,-332 322.5,-332"/>
<polygon fill="none" stroke="black" points="322.5,-332 322.5,-370 378.5,-370 378.5,-332 322.5,-332"/>
<text text-anchor="start" x="327.5" y="-354.8" font-family="Times,serif" font-size="14.00"> 584.34 </text>
<text text-anchor="start" x="326.5" y="-339.8" font-family="Times,serif" font-size="14.00"> (MB/s) </text>
<polygon fill="#ffff03" stroke="none" points="378.5,-332 378.5,-370 418.5,-370 418.5,-332 378.5,-332"/>
<polygon fill="none" stroke="black" points="378.5,-332 378.5,-370 418.5,-370 418.5,-332 378.5,-332"/>
<text text-anchor="start" x="382.5" y="-354.8" font-family="Times,serif" font-size="14.00"> 6.22 </text>
<text text-anchor="start" x="383.5" y="-339.8" font-family="Times,serif" font-size="14.00"> (ms)</text>
</g>
<!-- pool1_s0&#45;&gt;conv2_p0 -->
<g id="edge6" class="edge"><title>pool1_s0&#45;&gt;conv2_p0</title>
<path fill="none" stroke="black" d="M332.5,-455.867C332.5,-447.634 332.5,-438.957 332.5,-430.465"/>
<polygon fill="black" stroke="black" points="336,-430.241 332.5,-420.241 329,-430.241 336,-430.241"/>
</g>
<!-- norm2 -->
<g id="node11" class="node"><title>norm2</title>
<polygon fill="#a3a3a3" stroke="none" points="246.5,-265 246.5,-288 418.5,-288 418.5,-265 246.5,-265"/>
<polygon fill="none" stroke="black" points="246.5,-265 246.5,-288 418.5,-288 418.5,-265 246.5,-265"/>
<text text-anchor="start" x="314" y="-272.8" font-family="Times,serif" font-size="14.00">norm2</text>
<polygon fill="#dddddd" stroke="none" points="246.5,-242 246.5,-265 418.5,-265 418.5,-242 246.5,-242"/>
<polygon fill="none" stroke="black" points="246.5,-242 246.5,-265 418.5,-265 418.5,-242 246.5,-242"/>
<text text-anchor="start" x="296.5" y="-249.8" font-family="Times,serif" font-size="14.00">(256, 27, 27)</text>
<polygon fill="#b1f1ef" stroke="none" points="246.5,-204 246.5,-242 322.5,-242 322.5,-204 246.5,-204"/>
<polygon fill="none" stroke="black" points="246.5,-204 246.5,-242 322.5,-242 322.5,-204 246.5,-204"/>
<text text-anchor="start" x="272" y="-226.8" font-family="Times,serif" font-size="14.00"> 0.0 </text>
<text text-anchor="start" x="250.5" y="-211.8" font-family="Times,serif" font-size="14.00"> (MFLOPs) </text>
<polygon fill="#fee4fb" stroke="none" points="322.5,-204 322.5,-242 378.5,-242 378.5,-204 322.5,-204"/>
<polygon fill="none" stroke="black" points="322.5,-204 322.5,-242 378.5,-242 378.5,-204 322.5,-204"/>
<text text-anchor="start" x="327.5" y="-226.8" font-family="Times,serif" font-size="14.00"> 699.41 </text>
<text text-anchor="start" x="326.5" y="-211.8" font-family="Times,serif" font-size="14.00"> (MB/s) </text>
<polygon fill="#ffffbb" stroke="none" points="378.5,-204 378.5,-242 418.5,-242 418.5,-204 378.5,-204"/>
<polygon fill="none" stroke="black" points="378.5,-204 378.5,-242 418.5,-242 418.5,-204 378.5,-204"/>
<text text-anchor="start" x="382.5" y="-226.8" font-family="Times,serif" font-size="14.00"> 0.51 </text>
<text text-anchor="start" x="383.5" y="-211.8" font-family="Times,serif" font-size="14.00"> (ms)</text>
</g>
<!-- conv2_p0&#45;&gt;norm2 -->
<g id="edge9" class="edge"><title>conv2_p0&#45;&gt;norm2</title>
<path fill="none" stroke="black" d="M332.5,-327.867C332.5,-319.634 332.5,-310.957 332.5,-302.465"/>
<polygon fill="black" stroke="black" points="336,-302.241 332.5,-292.241 329,-302.241 336,-302.241"/>
</g>
<!-- conv2_p1 -->
<g id="node10" class="node"><title>conv2_p1</title>
<polygon fill="#a3a3a3" stroke="none" points="454.5,-393 454.5,-416 626.5,-416 626.5,-393 454.5,-393"/>
<polygon fill="none" stroke="black" points="454.5,-393 454.5,-416 626.5,-416 626.5,-393 454.5,-393"/>
<text text-anchor="start" x="513.5" y="-400.8" font-family="Times,serif" font-size="14.00">conv2_p1</text>
<polygon fill="#dddddd" stroke="none" points="454.5,-370 454.5,-393 626.5,-393 626.5,-370 454.5,-370"/>
<polygon fill="none" stroke="black" points="454.5,-370 454.5,-393 626.5,-393 626.5,-370 454.5,-370"/>
<text text-anchor="start" x="504.5" y="-377.8" font-family="Times,serif" font-size="14.00">(128, 27, 27)</text>
<polygon fill="#2ed1c6" stroke="none" points="454.5,-332 454.5,-370 530.5,-370 530.5,-332 454.5,-332"/>
<polygon fill="none" stroke="black" points="454.5,-332 454.5,-370 530.5,-370 530.5,-332 454.5,-332"/>
<text text-anchor="start" x="463" y="-354.8" font-family="Times,serif" font-size="14.00"> 223.9488 </text>
<text text-anchor="start" x="458.5" y="-339.8" font-family="Times,serif" font-size="14.00"> (MFLOPs) </text>
<polygon fill="#ffe5fc" stroke="none" points="530.5,-332 530.5,-370 586.5,-370 586.5,-332 530.5,-332"/>
<polygon fill="none" stroke="black" points="530.5,-332 530.5,-370 586.5,-370 586.5,-332 530.5,-332"/>
<text text-anchor="start" x="535.5" y="-354.8" font-family="Times,serif" font-size="14.00"> 573.91 </text>
<text text-anchor="start" x="534.5" y="-339.8" font-family="Times,serif" font-size="14.00"> (MB/s) </text>
<polygon fill="#ffff00" stroke="none" points="586.5,-332 586.5,-370 626.5,-370 626.5,-332 586.5,-332"/>
<polygon fill="none" stroke="black" points="586.5,-332 586.5,-370 626.5,-370 626.5,-332 586.5,-332"/>
<text text-anchor="start" x="590.5" y="-354.8" font-family="Times,serif" font-size="14.00"> 6.34 </text>
<text text-anchor="start" x="591.5" y="-339.8" font-family="Times,serif" font-size="14.00"> (ms)</text>
</g>
<!-- pool1_s1&#45;&gt;conv2_p1 -->
<g id="edge8" class="edge"><title>pool1_s1&#45;&gt;conv2_p1</title>
<path fill="none" stroke="black" d="M541.784,-455.867C541.653,-447.634 541.515,-438.957 541.38,-430.465"/>
<polygon fill="black" stroke="black" points="544.876,-430.185 541.218,-420.241 537.877,-430.296 544.876,-430.185"/>
</g>
<!-- conv2_p1&#45;&gt;norm2 -->
<g id="edge10" class="edge"><title>conv2_p1&#45;&gt;norm2</title>
<path fill="none" stroke="black" d="M465.995,-327.867C449.616,-317.945 432.173,-307.379 415.484,-297.269"/>
<polygon fill="black" stroke="black" points="417.201,-294.217 406.834,-292.03 413.574,-300.204 417.201,-294.217"/>
</g>
<!-- pool2 -->
<g id="node12" class="node"><title>pool2</title>
<polygon fill="#a3a3a3" stroke="none" points="244.5,-137 244.5,-160 420.5,-160 420.5,-137 244.5,-137"/>
<polygon fill="none" stroke="black" points="244.5,-137 244.5,-160 420.5,-160 420.5,-137 244.5,-137"/>
<text text-anchor="start" x="317" y="-144.8" font-family="Times,serif" font-size="14.00">pool2</text>
<polygon fill="#dddddd" stroke="none" points="244.5,-114 244.5,-137 420.5,-137 420.5,-114 244.5,-114"/>
<polygon fill="none" stroke="black" points="244.5,-114 244.5,-137 420.5,-137 420.5,-114 244.5,-114"/>
<text text-anchor="start" x="296.5" y="-121.8" font-family="Times,serif" font-size="14.00">(256, 13, 13)</text>
<polygon fill="#b0f0ee" stroke="none" points="244.5,-76 244.5,-114 320.5,-114 320.5,-76 244.5,-76"/>
<polygon fill="none" stroke="black" points="244.5,-76 244.5,-114 320.5,-114 320.5,-76 244.5,-76"/>
<text text-anchor="start" x="253" y="-98.8" font-family="Times,serif" font-size="14.00"> 0.389376 </text>
<text text-anchor="start" x="248.5" y="-83.8" font-family="Times,serif" font-size="14.00"> (MFLOPs) </text>
<polygon fill="#fee3fb" stroke="none" points="320.5,-76 320.5,-114 380.5,-114 380.5,-76 320.5,-76"/>
<polygon fill="none" stroke="black" points="320.5,-76 320.5,-114 380.5,-114 380.5,-76 320.5,-76"/>
<text text-anchor="start" x="324.5" y="-98.8" font-family="Times,serif" font-size="14.00"> 1313.65 </text>
<text text-anchor="start" x="326.5" y="-83.8" font-family="Times,serif" font-size="14.00"> (MB/s) </text>
<polygon fill="#ffffc3" stroke="none" points="380.5,-76 380.5,-114 420.5,-114 420.5,-76 380.5,-76"/>
<polygon fill="none" stroke="black" points="380.5,-76 380.5,-114 420.5,-114 420.5,-76 380.5,-76"/>
<text text-anchor="start" x="384.5" y="-98.8" font-family="Times,serif" font-size="14.00"> 0.27 </text>
<text text-anchor="start" x="385.5" y="-83.8" font-family="Times,serif" font-size="14.00"> (ms)</text>
</g>
<!-- norm2&#45;&gt;pool2 -->
<g id="edge11" class="edge"><title>norm2&#45;&gt;pool2</title>
<path fill="none" stroke="black" d="M332.5,-199.867C332.5,-191.634 332.5,-182.957 332.5,-174.465"/>
<polygon fill="black" stroke="black" points="336,-174.241 332.5,-164.241 329,-174.241 336,-174.241"/>
</g>
<!-- pool2&#45;&gt;Output -->
<g id="edge13" class="edge"><title>pool2&#45;&gt;Output</title>
<path fill="none" stroke="black" d="M303.859,-71.7292C297.988,-62.448 292.002,-52.9873 286.752,-44.6894"/>
<polygon fill="black" stroke="black" points="289.689,-42.7848 281.385,-36.2053 283.774,-46.5273 289.689,-42.7848"/>
</g>
<!-- Summary -->
<g id="node14" class="node"><title>Summary</title>
<polygon fill="#c60000" stroke="none" points="420.5,-1063.5 420.5,-1086.5 605.5,-1086.5 605.5,-1063.5 420.5,-1063.5"/>
<polygon fill="none" stroke="black" points="420.5,-1063.5 420.5,-1086.5 605.5,-1086.5 605.5,-1063.5 420.5,-1063.5"/>
<text text-anchor="start" x="485.5" y="-1071.3" font-family="Times,serif" font-size="14.00">Summary</text>
<polygon fill="#e2e2e2" stroke="none" points="420.5,-1040.5 420.5,-1063.5 605.5,-1063.5 605.5,-1040.5 420.5,-1040.5"/>
<polygon fill="none" stroke="black" points="420.5,-1040.5 420.5,-1063.5 605.5,-1063.5 605.5,-1040.5 420.5,-1040.5"/>
<text text-anchor="start" x="460" y="-1048.3" font-family="Times,serif" font-size="14.00">12 SHV Processors</text>
<polygon fill="#dadada" stroke="none" points="420.5,-1017.5 420.5,-1040.5 605.5,-1040.5 605.5,-1017.5 420.5,-1017.5"/>
<polygon fill="none" stroke="black" points="420.5,-1017.5 420.5,-1040.5 605.5,-1040.5 605.5,-1017.5 420.5,-1017.5"/>
<text text-anchor="start" x="445.5" y="-1025.3" font-family="Times,serif" font-size="14.00">Inference time 19.50 ms</text>
<polygon fill="#e2e2e2" stroke="none" points="420.5,-994.5 420.5,-1017.5 605.5,-1017.5 605.5,-994.5 420.5,-994.5"/>
<polygon fill="none" stroke="black" points="420.5,-994.5 420.5,-1017.5 605.5,-1017.5 605.5,-994.5 420.5,-994.5"/>
<text text-anchor="start" x="436" y="-1002.3" font-family="Times,serif" font-size="14.00">Bandwidth 2322.74 MB/sec</text>
<polygon fill="#dadada" stroke="none" points="420.5,-971.5 420.5,-994.5 605.5,-994.5 605.5,-971.5 420.5,-971.5"/>
<polygon fill="none" stroke="black" points="420.5,-971.5 420.5,-994.5 605.5,-994.5 605.5,-971.5 420.5,-971.5"/>
<text text-anchor="start" x="424.5" y="-979.3" font-family="Times,serif" font-size="14.00">This network is Compute bound</text>
</g>
</g>
</svg>
