<?xml version="1.0" encoding="UTF-8" standalone="no"?>
<!DOCTYPE svg PUBLIC "-//W3C//DTD SVG 1.1//EN"
 "http://www.w3.org/Graphics/SVG/1.1/DTD/svg11.dtd">
<!-- Generated by graphviz version 2.38.0 (20140413.2041)
 -->
<!-- Title: output Pages: 1 -->
<svg width="692pt" height="1483pt"
 viewBox="0.00 0.00 692.00 1483.00" xmlns="http://www.w3.org/2000/svg" xmlns:xlink="http://www.w3.org/1999/xlink">
<g id="graph0" class="graph" transform="scale(1 1) rotate(0) translate(4 1479)">
<title>output</title>
<polygon fill="white" stroke="none" points="-4,4 -4,-1479 688,-1479 688,4 -4,4"/>
<!-- Legend -->
<g id="node1" class="node"><title>Legend</title>
<polygon fill="#e0e0e0" stroke="none" points="8.5,-1420.5 8.5,-1443.5 209.5,-1443.5 209.5,-1420.5 8.5,-1420.5"/>
<polygon fill="none" stroke="black" points="8.5,-1420.5 8.5,-1443.5 209.5,-1443.5 209.5,-1420.5 8.5,-1420.5"/>
<text text-anchor="start" x="93" y="-1428.3" font-family="Times,serif" font-size="14.00">Layer</text>
<polygon fill="#88ffff" stroke="none" points="8.5,-1382.5 8.5,-1420.5 89.5,-1420.5 89.5,-1382.5 8.5,-1382.5"/>
<polygon fill="none" stroke="black" points="8.5,-1382.5 8.5,-1420.5 89.5,-1420.5 89.5,-1382.5 8.5,-1382.5"/>
<text text-anchor="start" x="12.5" y="-1405.3" font-family="Times,serif" font-size="14.00"> Complexity </text>
<text text-anchor="start" x="15" y="-1390.3" font-family="Times,serif" font-size="14.00"> (MFLOPs) </text>
<polygon fill="#ff88ff" stroke="none" points="89.5,-1382.5 89.5,-1420.5 164.5,-1420.5 164.5,-1382.5 89.5,-1382.5"/>
<polygon fill="none" stroke="black" points="89.5,-1382.5 89.5,-1420.5 164.5,-1420.5 164.5,-1382.5 89.5,-1382.5"/>
<text text-anchor="start" x="93.5" y="-1405.3" font-family="Times,serif" font-size="14.00"> Bandwidth </text>
<text text-anchor="start" x="103" y="-1390.3" font-family="Times,serif" font-size="14.00"> (MB/s) </text>
<polygon fill="#ffff88" stroke="none" points="164.5,-1382.5 164.5,-1420.5 209.5,-1420.5 209.5,-1382.5 164.5,-1382.5"/>
<polygon fill="none" stroke="black" points="164.5,-1382.5 164.5,-1420.5 209.5,-1420.5 209.5,-1382.5 164.5,-1382.5"/>
<text text-anchor="start" x="168.5" y="-1405.3" font-family="Times,serif" font-size="14.00"> Time </text>
<text text-anchor="start" x="172" y="-1390.3" font-family="Times,serif" font-size="14.00"> (ms)</text>
</g>
<!-- Input -->
<g id="node2" class="node"><title>Input</title>
<ellipse fill="none" stroke="black" cx="314.5" cy="-1413.5" rx="79.8859" ry="18"/>
<text text-anchor="middle" x="314.5" y="-1409.8" font-family="Times,serif" font-size="14.00">input: (13, 13, 256)</text>
</g>
<!-- data -->
<g id="node3" class="node"><title>data</title>
<polygon fill="#a3a3a3" stroke="none" points="160.5,-649 160.5,-672 343.5,-672 343.5,-649 160.5,-649"/>
<polygon fill="none" stroke="black" points="160.5,-649 160.5,-672 343.5,-672 343.5,-649 160.5,-649"/>
<text text-anchor="start" x="240.5" y="-656.8" font-family="Times,serif" font-size="14.00">data</text>
<polygon fill="#dddddd" stroke="none" points="160.5,-626 160.5,-649 343.5,-649 343.5,-626 160.5,-626"/>
<polygon fill="none" stroke="black" points="160.5,-626 160.5,-649 343.5,-649 343.5,-626 160.5,-626"/>
<text text-anchor="start" x="216" y="-633.8" font-family="Times,serif" font-size="14.00">(256, 13, 13)</text>
<polygon fill="#b1f1ef" stroke="none" points="160.5,-588 160.5,-626 236.5,-626 236.5,-588 160.5,-588"/>
<polygon fill="none" stroke="black" points="160.5,-588 160.5,-626 236.5,-626 236.5,-588 160.5,-588"/>
<text text-anchor="start" x="186" y="-610.8" font-family="Times,serif" font-size="14.00"> 0.0 </text>
<text text-anchor="start" x="164.5" y="-595.8" font-family="Times,serif" font-size="14.00"> (MFLOPs) </text>
<polygon fill="#b2189e" stroke="none" points="236.5,-588 236.5,-626 303.5,-626 303.5,-588 236.5,-588"/>
<polygon fill="none" stroke="black" points="236.5,-588 236.5,-626 303.5,-626 303.5,-588 236.5,-588"/>
<text text-anchor="start" x="240.5" y="-610.8" font-family="Times,serif" font-size="14.00"> 28872.28 </text>
<text text-anchor="start" x="246" y="-595.8" font-family="Times,serif" font-size="14.00"> (MB/s) </text>
<polygon fill="#ffffcc" stroke="none" points="303.5,-588 303.5,-626 343.5,-626 343.5,-588 303.5,-588"/>
<polygon fill="none" stroke="black" points="303.5,-588 303.5,-626 343.5,-626 343.5,-588 303.5,-588"/>
<text text-anchor="start" x="307.5" y="-610.8" font-family="Times,serif" font-size="14.00"> 0.00 </text>
<text text-anchor="start" x="308.5" y="-595.8" font-family="Times,serif" font-size="14.00"> (ms)</text>
</g>
<!-- Input&#45;&gt;data -->
<g id="edge1" class="edge"><title>Input&#45;&gt;data</title>
<path fill="none" stroke="black" d="M304.908,-1395.31C294.854,-1376.46 279.44,-1345.01 271.5,-1316 251.068,-1241.34 251.5,-1220.4 251.5,-1143 251.5,-1143 251.5,-1143 251.5,-885 251.5,-816.723 251.5,-738.122 251.5,-686.661"/>
<polygon fill="black" stroke="black" points="255,-686.424 251.5,-676.424 248,-686.424 255,-686.424"/>
</g>
<!-- conv3 -->
<g id="node4" class="node"><title>conv3</title>
<polygon fill="#a3a3a3" stroke="none" points="288.5,-1289 288.5,-1312 465.5,-1312 465.5,-1289 288.5,-1289"/>
<polygon fill="none" stroke="black" points="288.5,-1289 288.5,-1312 465.5,-1312 465.5,-1289 288.5,-1289"/>
<text text-anchor="start" x="360" y="-1296.8" font-family="Times,serif" font-size="14.00">conv3</text>
<polygon fill="#dddddd" stroke="none" points="288.5,-1266 288.5,-1289 465.5,-1289 465.5,-1266 288.5,-1266"/>
<polygon fill="none" stroke="black" points="288.5,-1266 288.5,-1289 465.5,-1289 465.5,-1266 288.5,-1266"/>
<text text-anchor="start" x="341" y="-1273.8" font-family="Times,serif" font-size="14.00">(384, 13, 13)</text>
<polygon fill="#2ed1c6" stroke="none" points="288.5,-1228 288.5,-1266 369.5,-1266 369.5,-1228 288.5,-1228"/>
<polygon fill="none" stroke="black" points="288.5,-1228 288.5,-1266 369.5,-1266 369.5,-1228 288.5,-1228"/>
<text text-anchor="start" x="292.5" y="-1250.8" font-family="Times,serif" font-size="14.00"> 299.040768 </text>
<text text-anchor="start" x="295" y="-1235.8" font-family="Times,serif" font-size="14.00"> (MFLOPs) </text>
<polygon fill="#fee2fb" stroke="none" points="369.5,-1228 369.5,-1266 425.5,-1266 425.5,-1228 369.5,-1228"/>
<polygon fill="none" stroke="black" points="369.5,-1228 369.5,-1266 425.5,-1266 425.5,-1228 369.5,-1228"/>
<text text-anchor="start" x="374.5" y="-1250.8" font-family="Times,serif" font-size="14.00"> 300.24 </text>
<text text-anchor="start" x="373.5" y="-1235.8" font-family="Times,serif" font-size="14.00"> (MB/s) </text>
<polygon fill="#ffff9b" stroke="none" points="425.5,-1228 425.5,-1266 465.5,-1266 465.5,-1228 425.5,-1228"/>
<polygon fill="none" stroke="black" points="425.5,-1228 425.5,-1266 465.5,-1266 465.5,-1228 425.5,-1228"/>
<text text-anchor="start" x="429.5" y="-1250.8" font-family="Times,serif" font-size="14.00"> 8.12 </text>
<text text-anchor="start" x="430.5" y="-1235.8" font-family="Times,serif" font-size="14.00"> (ms)</text>
</g>
<!-- Input&#45;&gt;conv3 -->
<g id="edge2" class="edge"><title>Input&#45;&gt;conv3</title>
<path fill="none" stroke="black" d="M321.979,-1395.43C329.575,-1378.09 341.743,-1350.32 352.659,-1325.41"/>
<polygon fill="black" stroke="black" points="355.961,-1326.6 356.769,-1316.03 349.55,-1323.79 355.961,-1326.6"/>
</g>
<!-- Output -->
<g id="node18" class="node"><title>Output</title>
<ellipse fill="none" stroke="black" cx="356.5" cy="-18" rx="89.0842" ry="18"/>
<text text-anchor="middle" x="356.5" y="-14.3" font-family="Times,serif" font-size="14.00">output: [13, 13, 1256]</text>
</g>
<!-- data&#45;&gt;Output -->
<g id="edge19" class="edge"><title>data&#45;&gt;Output</title>
<path fill="none" stroke="black" d="M263.536,-583.947C275.946,-533.458 293.5,-448.972 293.5,-375 293.5,-375 293.5,-375 293.5,-245 293.5,-167.435 287.058,-143.76 316.5,-72 320.635,-61.9215 327.168,-52.0617 333.765,-43.6326"/>
<polygon fill="black" stroke="black" points="336.626,-45.664 340.297,-35.7251 331.23,-41.206 336.626,-45.664"/>
</g>
<!-- conv3_s0 -->
<g id="node5" class="node"><title>conv3_s0</title>
<polygon fill="#a3a3a3" stroke="none" points="288.5,-1161 288.5,-1184 464.5,-1184 464.5,-1161 288.5,-1161"/>
<polygon fill="none" stroke="black" points="288.5,-1161 288.5,-1184 464.5,-1184 464.5,-1161 288.5,-1161"/>
<text text-anchor="start" x="350.5" y="-1168.8" font-family="Times,serif" font-size="14.00">conv3_s0</text>
<polygon fill="#dddddd" stroke="none" points="288.5,-1138 288.5,-1161 464.5,-1161 464.5,-1138 288.5,-1138"/>
<polygon fill="none" stroke="black" points="288.5,-1138 288.5,-1161 464.5,-1161 464.5,-1138 288.5,-1138"/>
<text text-anchor="start" x="340.5" y="-1145.8" font-family="Times,serif" font-size="14.00">(192, 13, 13)</text>
<polygon fill="#b1f1ef" stroke="none" points="288.5,-1100 288.5,-1138 364.5,-1138 364.5,-1100 288.5,-1100"/>
<polygon fill="none" stroke="black" points="288.5,-1100 288.5,-1138 364.5,-1138 364.5,-1100 288.5,-1100"/>
<text text-anchor="start" x="314" y="-1122.8" font-family="Times,serif" font-size="14.00"> 0.0 </text>
<text text-anchor="start" x="292.5" y="-1107.8" font-family="Times,serif" font-size="14.00"> (MFLOPs) </text>
<polygon fill="#fadaf7" stroke="none" points="364.5,-1100 364.5,-1138 424.5,-1138 424.5,-1100 364.5,-1100"/>
<polygon fill="none" stroke="black" points="364.5,-1100 364.5,-1138 424.5,-1138 424.5,-1100 364.5,-1100"/>
<text text-anchor="start" x="368.5" y="-1122.8" font-family="Times,serif" font-size="14.00"> 1532.16 </text>
<text text-anchor="start" x="370.5" y="-1107.8" font-family="Times,serif" font-size="14.00"> (MB/s) </text>
<polygon fill="#ffffcb" stroke="none" points="424.5,-1100 424.5,-1138 464.5,-1138 464.5,-1100 424.5,-1100"/>
<polygon fill="none" stroke="black" points="424.5,-1100 424.5,-1138 464.5,-1138 464.5,-1100 424.5,-1100"/>
<text text-anchor="start" x="428.5" y="-1122.8" font-family="Times,serif" font-size="14.00"> 0.04 </text>
<text text-anchor="start" x="429.5" y="-1107.8" font-family="Times,serif" font-size="14.00"> (ms)</text>
</g>
<!-- conv3&#45;&gt;conv3_s0 -->
<g id="edge3" class="edge"><title>conv3&#45;&gt;conv3_s0</title>
<path fill="none" stroke="black" d="M376.5,-1223.87C376.5,-1215.63 376.5,-1206.96 376.5,-1198.47"/>
<polygon fill="black" stroke="black" points="380,-1198.24 376.5,-1188.24 373,-1198.24 380,-1198.24"/>
</g>
<!-- conv3_s1 -->
<g id="node7" class="node"><title>conv3_s1</title>
<polygon fill="#a3a3a3" stroke="none" points="498.5,-1161 498.5,-1184 674.5,-1184 674.5,-1161 498.5,-1161"/>
<polygon fill="none" stroke="black" points="498.5,-1161 498.5,-1184 674.5,-1184 674.5,-1161 498.5,-1161"/>
<text text-anchor="start" x="560.5" y="-1168.8" font-family="Times,serif" font-size="14.00">conv3_s1</text>
<polygon fill="#dddddd" stroke="none" points="498.5,-1138 498.5,-1161 674.5,-1161 674.5,-1138 498.5,-1138"/>
<polygon fill="none" stroke="black" points="498.5,-1138 498.5,-1161 674.5,-1161 674.5,-1138 498.5,-1138"/>
<text text-anchor="start" x="550.5" y="-1145.8" font-family="Times,serif" font-size="14.00">(192, 13, 13)</text>
<polygon fill="#b1f1ef" stroke="none" points="498.5,-1100 498.5,-1138 574.5,-1138 574.5,-1100 498.5,-1100"/>
<polygon fill="none" stroke="black" points="498.5,-1100 498.5,-1138 574.5,-1138 574.5,-1100 498.5,-1100"/>
<text text-anchor="start" x="524" y="-1122.8" font-family="Times,serif" font-size="14.00"> 0.0 </text>
<text text-anchor="start" x="502.5" y="-1107.8" font-family="Times,serif" font-size="14.00"> (MFLOPs) </text>
<polygon fill="#fbdaf7" stroke="none" points="574.5,-1100 574.5,-1138 634.5,-1138 634.5,-1100 574.5,-1100"/>
<polygon fill="none" stroke="black" points="574.5,-1100 574.5,-1138 634.5,-1138 634.5,-1100 574.5,-1100"/>
<text text-anchor="start" x="578.5" y="-1122.8" font-family="Times,serif" font-size="14.00"> 1486.01 </text>
<text text-anchor="start" x="580.5" y="-1107.8" font-family="Times,serif" font-size="14.00"> (MB/s) </text>
<polygon fill="#ffffcb" stroke="none" points="634.5,-1100 634.5,-1138 674.5,-1138 674.5,-1100 634.5,-1100"/>
<polygon fill="none" stroke="black" points="634.5,-1100 634.5,-1138 674.5,-1138 674.5,-1100 634.5,-1100"/>
<text text-anchor="start" x="638.5" y="-1122.8" font-family="Times,serif" font-size="14.00"> 0.04 </text>
<text text-anchor="start" x="639.5" y="-1107.8" font-family="Times,serif" font-size="14.00"> (ms)</text>
</g>
<!-- conv3&#45;&gt;conv3_s1 -->
<g id="edge5" class="edge"><title>conv3&#45;&gt;conv3_s1</title>
<path fill="none" stroke="black" d="M451.722,-1223.87C468.258,-1213.95 485.869,-1203.38 502.718,-1193.27"/>
<polygon fill="black" stroke="black" points="504.677,-1196.18 511.451,-1188.03 501.075,-1190.17 504.677,-1196.18"/>
</g>
<!-- conv4_p0 -->
<g id="node6" class="node"><title>conv4_p0</title>
<polygon fill="#a3a3a3" stroke="none" points="288.5,-1033 288.5,-1056 465.5,-1056 465.5,-1033 288.5,-1033"/>
<polygon fill="none" stroke="black" points="288.5,-1033 288.5,-1056 465.5,-1056 465.5,-1033 288.5,-1033"/>
<text text-anchor="start" x="350" y="-1040.8" font-family="Times,serif" font-size="14.00">conv4_p0</text>
<polygon fill="#dddddd" stroke="none" points="288.5,-1010 288.5,-1033 465.5,-1033 465.5,-1010 288.5,-1010"/>
<polygon fill="none" stroke="black" points="288.5,-1010 288.5,-1033 465.5,-1033 465.5,-1010 288.5,-1010"/>
<text text-anchor="start" x="341" y="-1017.8" font-family="Times,serif" font-size="14.00">(192, 13, 13)</text>
<polygon fill="#7fe5df" stroke="none" points="288.5,-972 288.5,-1010 369.5,-1010 369.5,-972 288.5,-972"/>
<polygon fill="none" stroke="black" points="288.5,-972 288.5,-1010 369.5,-1010 369.5,-972 288.5,-972"/>
<text text-anchor="start" x="292.5" y="-994.8" font-family="Times,serif" font-size="14.00"> 112.140288 </text>
<text text-anchor="start" x="295" y="-979.8" font-family="Times,serif" font-size="14.00"> (MFLOPs) </text>
<polygon fill="#fde1fa" stroke="none" points="369.5,-972 369.5,-1010 425.5,-1010 425.5,-972 369.5,-972"/>
<polygon fill="none" stroke="black" points="369.5,-972 369.5,-1010 425.5,-1010 425.5,-972 369.5,-972"/>
<text text-anchor="start" x="374.5" y="-994.8" font-family="Times,serif" font-size="14.00"> 523.95 </text>
<text text-anchor="start" x="373.5" y="-979.8" font-family="Times,serif" font-size="14.00"> (MB/s) </text>
<polygon fill="#ffffb7" stroke="none" points="425.5,-972 425.5,-1010 465.5,-1010 465.5,-972 425.5,-972"/>
<polygon fill="none" stroke="black" points="425.5,-972 425.5,-1010 465.5,-1010 465.5,-972 425.5,-972"/>
<text text-anchor="start" x="429.5" y="-994.8" font-family="Times,serif" font-size="14.00"> 3.34 </text>
<text text-anchor="start" x="430.5" y="-979.8" font-family="Times,serif" font-size="14.00"> (ms)</text>
</g>
<!-- conv3_s0&#45;&gt;conv4_p0 -->
<g id="edge4" class="edge"><title>conv3_s0&#45;&gt;conv4_p0</title>
<path fill="none" stroke="black" d="M376.5,-1095.87C376.5,-1087.63 376.5,-1078.96 376.5,-1070.47"/>
<polygon fill="black" stroke="black" points="380,-1070.24 376.5,-1060.24 373,-1070.24 380,-1070.24"/>
</g>
<!-- conv4_p0_s0 -->
<g id="node9" class="node"><title>conv4_p0_s0</title>
<polygon fill="#a3a3a3" stroke="none" points="288.5,-905 288.5,-928 464.5,-928 464.5,-905 288.5,-905"/>
<polygon fill="none" stroke="black" points="288.5,-905 288.5,-928 464.5,-928 464.5,-905 288.5,-905"/>
<text text-anchor="start" x="340" y="-912.8" font-family="Times,serif" font-size="14.00">conv4_p0_s0</text>
<polygon fill="#dddddd" stroke="none" points="288.5,-882 288.5,-905 464.5,-905 464.5,-882 288.5,-882"/>
<polygon fill="none" stroke="black" points="288.5,-882 288.5,-905 464.5,-905 464.5,-882 288.5,-882"/>
<text text-anchor="start" x="340.5" y="-889.8" font-family="Times,serif" font-size="14.00">(192, 13, 13)</text>
<polygon fill="#b1f1ef" stroke="none" points="288.5,-844 288.5,-882 364.5,-882 364.5,-844 288.5,-844"/>
<polygon fill="none" stroke="black" points="288.5,-844 288.5,-882 364.5,-882 364.5,-844 288.5,-844"/>
<text text-anchor="start" x="314" y="-866.8" font-family="Times,serif" font-size="14.00"> 0.0 </text>
<text text-anchor="start" x="292.5" y="-851.8" font-family="Times,serif" font-size="14.00"> (MFLOPs) </text>
<polygon fill="#fbdbf7" stroke="none" points="364.5,-844 364.5,-882 424.5,-882 424.5,-844 364.5,-844"/>
<polygon fill="none" stroke="black" points="364.5,-844 364.5,-882 424.5,-882 424.5,-844 364.5,-844"/>
<text text-anchor="start" x="368.5" y="-866.8" font-family="Times,serif" font-size="14.00"> 1328.54 </text>
<text text-anchor="start" x="370.5" y="-851.8" font-family="Times,serif" font-size="14.00"> (MB/s) </text>
<polygon fill="#ffffcb" stroke="none" points="424.5,-844 424.5,-882 464.5,-882 464.5,-844 424.5,-844"/>
<polygon fill="none" stroke="black" points="424.5,-844 424.5,-882 464.5,-882 464.5,-844 424.5,-844"/>
<text text-anchor="start" x="428.5" y="-866.8" font-family="Times,serif" font-size="14.00"> 0.05 </text>
<text text-anchor="start" x="429.5" y="-851.8" font-family="Times,serif" font-size="14.00"> (ms)</text>
</g>
<!-- conv4_p0&#45;&gt;conv4_p0_s0 -->
<g id="edge7" class="edge"><title>conv4_p0&#45;&gt;conv4_p0_s0</title>
<path fill="none" stroke="black" d="M376.5,-967.867C376.5,-959.634 376.5,-950.957 376.5,-942.465"/>
<polygon fill="black" stroke="black" points="380,-942.241 376.5,-932.241 373,-942.241 380,-942.241"/>
</g>
<!-- conv4_p0_s1 -->
<g id="node11" class="node"><title>conv4_p0_s1</title>
<polygon fill="#a3a3a3" stroke="none" points="498.5,-905 498.5,-928 674.5,-928 674.5,-905 498.5,-905"/>
<polygon fill="none" stroke="black" points="498.5,-905 498.5,-928 674.5,-928 674.5,-905 498.5,-905"/>
<text text-anchor="start" x="550" y="-912.8" font-family="Times,serif" font-size="14.00">conv4_p0_s1</text>
<polygon fill="#dddddd" stroke="none" points="498.5,-882 498.5,-905 674.5,-905 674.5,-882 498.5,-882"/>
<polygon fill="none" stroke="black" points="498.5,-882 498.5,-905 674.5,-905 674.5,-882 498.5,-882"/>
<text text-anchor="start" x="550.5" y="-889.8" font-family="Times,serif" font-size="14.00">(192, 13, 13)</text>
<polygon fill="#b1f1ef" stroke="none" points="498.5,-844 498.5,-882 574.5,-882 574.5,-844 498.5,-844"/>
<polygon fill="none" stroke="black" points="498.5,-844 498.5,-882 574.5,-882 574.5,-844 498.5,-844"/>
<text text-anchor="start" x="524" y="-866.8" font-family="Times,serif" font-size="14.00"> 0.0 </text>
<text text-anchor="start" x="502.5" y="-851.8" font-family="Times,serif" font-size="14.00"> (MFLOPs) </text>
<polygon fill="#fbdbf7" stroke="none" points="574.5,-844 574.5,-882 634.5,-882 634.5,-844 574.5,-844"/>
<polygon fill="none" stroke="black" points="574.5,-844 574.5,-882 634.5,-882 634.5,-844 574.5,-844"/>
<text text-anchor="start" x="578.5" y="-866.8" font-family="Times,serif" font-size="14.00"> 1310.40 </text>
<text text-anchor="start" x="580.5" y="-851.8" font-family="Times,serif" font-size="14.00"> (MB/s) </text>
<polygon fill="#ffffcb" stroke="none" points="634.5,-844 634.5,-882 674.5,-882 674.5,-844 634.5,-844"/>
<polygon fill="none" stroke="black" points="634.5,-844 634.5,-882 674.5,-882 674.5,-844 634.5,-844"/>
<text text-anchor="start" x="638.5" y="-866.8" font-family="Times,serif" font-size="14.00"> 0.05 </text>
<text text-anchor="start" x="639.5" y="-851.8" font-family="Times,serif" font-size="14.00"> (ms)</text>
</g>
<!-- conv4_p0&#45;&gt;conv4_p0_s1 -->
<g id="edge10" class="edge"><title>conv4_p0&#45;&gt;conv4_p0_s1</title>
<path fill="none" stroke="black" d="M451.722,-967.867C468.258,-957.945 485.869,-947.379 502.718,-937.269"/>
<polygon fill="black" stroke="black" points="504.677,-940.176 511.451,-932.03 501.075,-934.173 504.677,-940.176"/>
</g>
<!-- conv4_p1 -->
<g id="node8" class="node"><title>conv4_p1</title>
<polygon fill="#a3a3a3" stroke="none" points="499.5,-1033 499.5,-1056 676.5,-1056 676.5,-1033 499.5,-1033"/>
<polygon fill="none" stroke="black" points="499.5,-1033 499.5,-1056 676.5,-1056 676.5,-1033 499.5,-1033"/>
<text text-anchor="start" x="561" y="-1040.8" font-family="Times,serif" font-size="14.00">conv4_p1</text>
<polygon fill="#dddddd" stroke="none" points="499.5,-1010 499.5,-1033 676.5,-1033 676.5,-1010 499.5,-1010"/>
<polygon fill="none" stroke="black" points="499.5,-1010 499.5,-1033 676.5,-1033 676.5,-1010 499.5,-1010"/>
<text text-anchor="start" x="552" y="-1017.8" font-family="Times,serif" font-size="14.00">(192, 13, 13)</text>
<polygon fill="#7fe5df" stroke="none" points="499.5,-972 499.5,-1010 580.5,-1010 580.5,-972 499.5,-972"/>
<polygon fill="none" stroke="black" points="499.5,-972 499.5,-1010 580.5,-1010 580.5,-972 499.5,-972"/>
<text text-anchor="start" x="503.5" y="-994.8" font-family="Times,serif" font-size="14.00"> 112.140288 </text>
<text text-anchor="start" x="506" y="-979.8" font-family="Times,serif" font-size="14.00"> (MFLOPs) </text>
<polygon fill="#fde1fa" stroke="none" points="580.5,-972 580.5,-1010 636.5,-1010 636.5,-972 580.5,-972"/>
<polygon fill="none" stroke="black" points="580.5,-972 580.5,-1010 636.5,-1010 636.5,-972 580.5,-972"/>
<text text-anchor="start" x="585.5" y="-994.8" font-family="Times,serif" font-size="14.00"> 533.66 </text>
<text text-anchor="start" x="584.5" y="-979.8" font-family="Times,serif" font-size="14.00"> (MB/s) </text>
<polygon fill="#ffffb8" stroke="none" points="636.5,-972 636.5,-1010 676.5,-1010 676.5,-972 636.5,-972"/>
<polygon fill="none" stroke="black" points="636.5,-972 636.5,-1010 676.5,-1010 676.5,-972 636.5,-972"/>
<text text-anchor="start" x="640.5" y="-994.8" font-family="Times,serif" font-size="14.00"> 3.28 </text>
<text text-anchor="start" x="641.5" y="-979.8" font-family="Times,serif" font-size="14.00"> (ms)</text>
</g>
<!-- conv3_s1&#45;&gt;conv4_p1 -->
<g id="edge6" class="edge"><title>conv3_s1&#45;&gt;conv4_p1</title>
<path fill="none" stroke="black" d="M586.858,-1095.87C586.924,-1087.63 586.992,-1078.96 587.06,-1070.47"/>
<polygon fill="black" stroke="black" points="590.561,-1070.27 587.141,-1060.24 583.562,-1070.21 590.561,-1070.27"/>
</g>
<!-- conv4_p1&#45;&gt;conv4_p0_s0 -->
<g id="edge8" class="edge"><title>conv4_p1&#45;&gt;conv4_p0_s0</title>
<path fill="none" stroke="black" d="M511.92,-967.867C495.305,-957.945 477.611,-947.379 460.681,-937.269"/>
<polygon fill="black" stroke="black" points="462.287,-934.152 451.907,-932.03 458.698,-940.162 462.287,-934.152"/>
</g>
<!-- conv4_p1&#45;&gt;conv4_p0_s1 -->
<g id="edge11" class="edge"><title>conv4_p1&#45;&gt;conv4_p0_s1</title>
<path fill="none" stroke="black" d="M587.142,-967.867C587.076,-959.634 587.008,-950.957 586.94,-942.465"/>
<polygon fill="black" stroke="black" points="590.438,-942.213 586.859,-932.241 583.439,-942.269 590.438,-942.213"/>
</g>
<!-- conv5_p0 -->
<g id="node10" class="node"><title>conv5_p0</title>
<polygon fill="#a3a3a3" stroke="none" points="291.5,-777 291.5,-800 463.5,-800 463.5,-777 291.5,-777"/>
<polygon fill="none" stroke="black" points="291.5,-777 291.5,-800 463.5,-800 463.5,-777 291.5,-777"/>
<text text-anchor="start" x="350.5" y="-784.8" font-family="Times,serif" font-size="14.00">conv5_p0</text>
<polygon fill="#dddddd" stroke="none" points="291.5,-754 291.5,-777 463.5,-777 463.5,-754 291.5,-754"/>
<polygon fill="none" stroke="black" points="291.5,-754 291.5,-777 463.5,-777 463.5,-754 291.5,-754"/>
<text text-anchor="start" x="341.5" y="-761.8" font-family="Times,serif" font-size="14.00">(128, 13, 13)</text>
<polygon fill="#90e9e4" stroke="none" points="291.5,-716 291.5,-754 367.5,-754 367.5,-716 291.5,-716"/>
<polygon fill="none" stroke="black" points="291.5,-716 291.5,-754 367.5,-754 367.5,-716 291.5,-716"/>
<text text-anchor="start" x="296.5" y="-738.8" font-family="Times,serif" font-size="14.00"> 74.760192 </text>
<text text-anchor="start" x="295.5" y="-723.8" font-family="Times,serif" font-size="14.00"> (MFLOPs) </text>
<polygon fill="#fde1fa" stroke="none" points="367.5,-716 367.5,-754 423.5,-754 423.5,-716 367.5,-716"/>
<polygon fill="none" stroke="black" points="367.5,-716 367.5,-754 423.5,-754 423.5,-716 367.5,-716"/>
<text text-anchor="start" x="372.5" y="-738.8" font-family="Times,serif" font-size="14.00"> 557.46 </text>
<text text-anchor="start" x="371.5" y="-723.8" font-family="Times,serif" font-size="14.00"> (MB/s) </text>
<polygon fill="#ffffbb" stroke="none" points="423.5,-716 423.5,-754 463.5,-754 463.5,-716 423.5,-716"/>
<polygon fill="none" stroke="black" points="423.5,-716 423.5,-754 463.5,-754 463.5,-716 423.5,-716"/>
<text text-anchor="start" x="427.5" y="-738.8" font-family="Times,serif" font-size="14.00"> 2.76 </text>
<text text-anchor="start" x="428.5" y="-723.8" font-family="Times,serif" font-size="14.00"> (ms)</text>
</g>
<!-- conv4_p0_s0&#45;&gt;conv5_p0 -->
<g id="edge9" class="edge"><title>conv4_p0_s0&#45;&gt;conv5_p0</title>
<path fill="none" stroke="black" d="M376.858,-839.867C376.924,-831.634 376.992,-822.957 377.06,-814.465"/>
<polygon fill="black" stroke="black" points="380.561,-814.269 377.141,-804.241 373.562,-814.213 380.561,-814.269"/>
</g>
<!-- pool5 -->
<g id="node13" class="node"><title>pool5</title>
<polygon fill="#a3a3a3" stroke="none" points="377.5,-649 377.5,-672 549.5,-672 549.5,-649 377.5,-649"/>
<polygon fill="none" stroke="black" points="377.5,-649 377.5,-672 549.5,-672 549.5,-649 377.5,-649"/>
<text text-anchor="start" x="448" y="-656.8" font-family="Times,serif" font-size="14.00">pool5</text>
<polygon fill="#dddddd" stroke="none" points="377.5,-626 377.5,-649 549.5,-649 549.5,-626 377.5,-626"/>
<polygon fill="none" stroke="black" points="377.5,-626 377.5,-649 549.5,-649 549.5,-626 377.5,-626"/>
<text text-anchor="start" x="434.5" y="-633.8" font-family="Times,serif" font-size="14.00">(256, 6, 6)</text>
<polygon fill="#b0f0ee" stroke="none" points="377.5,-588 377.5,-626 453.5,-626 453.5,-588 377.5,-588"/>
<polygon fill="none" stroke="black" points="377.5,-588 377.5,-626 453.5,-626 453.5,-588 377.5,-588"/>
<text text-anchor="start" x="386" y="-610.8" font-family="Times,serif" font-size="14.00"> 0.082944 </text>
<text text-anchor="start" x="381.5" y="-595.8" font-family="Times,serif" font-size="14.00"> (MFLOPs) </text>
<polygon fill="#fcdff9" stroke="none" points="453.5,-588 453.5,-626 509.5,-626 509.5,-588 453.5,-588"/>
<polygon fill="none" stroke="black" points="453.5,-588 453.5,-626 509.5,-626 509.5,-588 453.5,-588"/>
<text text-anchor="start" x="458.5" y="-610.8" font-family="Times,serif" font-size="14.00"> 796.90 </text>
<text text-anchor="start" x="457.5" y="-595.8" font-family="Times,serif" font-size="14.00"> (MB/s) </text>
<polygon fill="#ffffcb" stroke="none" points="509.5,-588 509.5,-626 549.5,-626 549.5,-588 509.5,-588"/>
<polygon fill="none" stroke="black" points="509.5,-588 509.5,-626 549.5,-626 549.5,-588 509.5,-588"/>
<text text-anchor="start" x="513.5" y="-610.8" font-family="Times,serif" font-size="14.00"> 0.10 </text>
<text text-anchor="start" x="514.5" y="-595.8" font-family="Times,serif" font-size="14.00"> (ms)</text>
</g>
<!-- conv5_p0&#45;&gt;pool5 -->
<g id="edge13" class="edge"><title>conv5_p0&#45;&gt;pool5</title>
<path fill="none" stroke="black" d="M408.305,-711.867C414.357,-703.001 420.76,-693.619 426.978,-684.509"/>
<polygon fill="black" stroke="black" points="429.874,-686.474 432.621,-676.241 424.093,-682.528 429.874,-686.474"/>
</g>
<!-- conv5_p1 -->
<g id="node12" class="node"><title>conv5_p1</title>
<polygon fill="#a3a3a3" stroke="none" points="499.5,-777 499.5,-800 671.5,-800 671.5,-777 499.5,-777"/>
<polygon fill="none" stroke="black" points="499.5,-777 499.5,-800 671.5,-800 671.5,-777 499.5,-777"/>
<text text-anchor="start" x="558.5" y="-784.8" font-family="Times,serif" font-size="14.00">conv5_p1</text>
<polygon fill="#dddddd" stroke="none" points="499.5,-754 499.5,-777 671.5,-777 671.5,-754 499.5,-754"/>
<polygon fill="none" stroke="black" points="499.5,-754 499.5,-777 671.5,-777 671.5,-754 499.5,-754"/>
<text text-anchor="start" x="549.5" y="-761.8" font-family="Times,serif" font-size="14.00">(128, 13, 13)</text>
<polygon fill="#90e9e4" stroke="none" points="499.5,-716 499.5,-754 575.5,-754 575.5,-716 499.5,-716"/>
<polygon fill="none" stroke="black" points="499.5,-716 499.5,-754 575.5,-754 575.5,-716 499.5,-716"/>
<text text-anchor="start" x="504.5" y="-738.8" font-family="Times,serif" font-size="14.00"> 74.760192 </text>
<text text-anchor="start" x="503.5" y="-723.8" font-family="Times,serif" font-size="14.00"> (MFLOPs) </text>
<polygon fill="#fde0fa" stroke="none" points="575.5,-716 575.5,-754 631.5,-754 631.5,-716 575.5,-716"/>
<polygon fill="none" stroke="black" points="575.5,-716 575.5,-754 631.5,-754 631.5,-716 575.5,-716"/>
<text text-anchor="start" x="580.5" y="-738.8" font-family="Times,serif" font-size="14.00"> 581.44 </text>
<text text-anchor="start" x="579.5" y="-723.8" font-family="Times,serif" font-size="14.00"> (MB/s) </text>
<polygon fill="#ffffbc" stroke="none" points="631.5,-716 631.5,-754 671.5,-754 671.5,-716 631.5,-716"/>
<polygon fill="none" stroke="black" points="631.5,-716 631.5,-754 671.5,-754 671.5,-716 631.5,-716"/>
<text text-anchor="start" x="635.5" y="-738.8" font-family="Times,serif" font-size="14.00"> 2.65 </text>
<text text-anchor="start" x="636.5" y="-723.8" font-family="Times,serif" font-size="14.00"> (ms)</text>
</g>
<!-- conv4_p0_s1&#45;&gt;conv5_p1 -->
<g id="edge12" class="edge"><title>conv4_p0_s1&#45;&gt;conv5_p1</title>
<path fill="none" stroke="black" d="M586.142,-839.867C586.076,-831.634 586.008,-822.957 585.94,-814.465"/>
<polygon fill="black" stroke="black" points="589.438,-814.213 585.859,-804.241 582.439,-814.269 589.438,-814.213"/>
</g>
<!-- conv5_p1&#45;&gt;pool5 -->
<g id="edge14" class="edge"><title>conv5_p1&#45;&gt;pool5</title>
<path fill="none" stroke="black" d="M541.8,-711.867C532.952,-702.729 523.575,-693.045 514.501,-683.673"/>
<polygon fill="black" stroke="black" points="516.776,-680.991 507.305,-676.241 511.747,-685.86 516.776,-680.991"/>
</g>
<!-- fc6 -->
<g id="node14" class="node"><title>fc6</title>
<polygon fill="#a3a3a3" stroke="none" points="361.5,-521 361.5,-544 544.5,-544 544.5,-521 361.5,-521"/>
<polygon fill="none" stroke="black" points="361.5,-521 361.5,-544 544.5,-544 544.5,-521 361.5,-521"/>
<text text-anchor="start" x="444" y="-528.8" font-family="Times,serif" font-size="14.00">fc6</text>
<polygon fill="#dddddd" stroke="none" points="361.5,-498 361.5,-521 544.5,-521 544.5,-498 361.5,-498"/>
<polygon fill="none" stroke="black" points="361.5,-498 361.5,-521 544.5,-521 544.5,-498 361.5,-498"/>
<text text-anchor="start" x="420.5" y="-505.8" font-family="Times,serif" font-size="14.00">(4096, 1, 1)</text>
<polygon fill="#8fe8e4" stroke="none" points="361.5,-460 361.5,-498 437.5,-498 437.5,-460 361.5,-460"/>
<polygon fill="none" stroke="black" points="361.5,-460 361.5,-498 437.5,-498 437.5,-460 361.5,-460"/>
<text text-anchor="start" x="366.5" y="-482.8" font-family="Times,serif" font-size="14.00"> 75.497472 </text>
<text text-anchor="start" x="365.5" y="-467.8" font-family="Times,serif" font-size="14.00"> (MFLOPs) </text>
<polygon fill="#f9d5f5" stroke="none" points="437.5,-460 437.5,-498 497.5,-498 497.5,-460 437.5,-460"/>
<polygon fill="none" stroke="black" points="437.5,-460 437.5,-498 497.5,-498 497.5,-460 437.5,-460"/>
<text text-anchor="start" x="441.5" y="-482.8" font-family="Times,serif" font-size="14.00"> 2127.60 </text>
<text text-anchor="start" x="443.5" y="-467.8" font-family="Times,serif" font-size="14.00"> (MB/s) </text>
<polygon fill="#ffff00" stroke="none" points="497.5,-460 497.5,-498 544.5,-498 544.5,-460 497.5,-460"/>
<polygon fill="none" stroke="black" points="497.5,-460 497.5,-498 544.5,-498 544.5,-460 497.5,-460"/>
<text text-anchor="start" x="501.5" y="-482.8" font-family="Times,serif" font-size="14.00"> 33.85 </text>
<text text-anchor="start" x="506" y="-467.8" font-family="Times,serif" font-size="14.00"> (ms)</text>
</g>
<!-- pool5&#45;&gt;fc6 -->
<g id="edge15" class="edge"><title>pool5&#45;&gt;fc6</title>
<path fill="none" stroke="black" d="M459.56,-583.867C458.841,-575.634 458.084,-566.957 457.342,-558.465"/>
<polygon fill="black" stroke="black" points="460.806,-557.899 456.45,-548.241 453.833,-558.508 460.806,-557.899"/>
</g>
<!-- fc7 -->
<g id="node15" class="node"><title>fc7</title>
<polygon fill="#a3a3a3" stroke="none" points="340.5,-393 340.5,-416 523.5,-416 523.5,-393 340.5,-393"/>
<polygon fill="none" stroke="black" points="340.5,-393 340.5,-416 523.5,-416 523.5,-393 340.5,-393"/>
<text text-anchor="start" x="423" y="-400.8" font-family="Times,serif" font-size="14.00">fc7</text>
<polygon fill="#dddddd" stroke="none" points="340.5,-370 340.5,-393 523.5,-393 523.5,-370 340.5,-370"/>
<polygon fill="none" stroke="black" points="340.5,-370 340.5,-393 523.5,-393 523.5,-370 340.5,-370"/>
<text text-anchor="start" x="399.5" y="-377.8" font-family="Times,serif" font-size="14.00">(4096, 1, 1)</text>
<polygon fill="#a2edea" stroke="none" points="340.5,-332 340.5,-370 416.5,-370 416.5,-332 340.5,-332"/>
<polygon fill="none" stroke="black" points="340.5,-332 340.5,-370 416.5,-370 416.5,-332 340.5,-332"/>
<text text-anchor="start" x="345.5" y="-354.8" font-family="Times,serif" font-size="14.00"> 33.554432 </text>
<text text-anchor="start" x="344.5" y="-339.8" font-family="Times,serif" font-size="14.00"> (MFLOPs) </text>
<polygon fill="#f9d6f5" stroke="none" points="416.5,-332 416.5,-370 476.5,-370 476.5,-332 416.5,-332"/>
<polygon fill="none" stroke="black" points="416.5,-332 416.5,-370 476.5,-370 476.5,-332 416.5,-332"/>
<text text-anchor="start" x="420.5" y="-354.8" font-family="Times,serif" font-size="14.00"> 2116.35 </text>
<text text-anchor="start" x="422.5" y="-339.8" font-family="Times,serif" font-size="14.00"> (MB/s) </text>
<polygon fill="#ffff70" stroke="none" points="476.5,-332 476.5,-370 523.5,-370 523.5,-332 476.5,-332"/>
<polygon fill="none" stroke="black" points="476.5,-332 476.5,-370 523.5,-370 523.5,-332 476.5,-332"/>
<text text-anchor="start" x="480.5" y="-354.8" font-family="Times,serif" font-size="14.00"> 15.12 </text>
<text text-anchor="start" x="485" y="-339.8" font-family="Times,serif" font-size="14.00"> (ms)</text>
</g>
<!-- fc6&#45;&gt;fc7 -->
<g id="edge16" class="edge"><title>fc6&#45;&gt;fc7</title>
<path fill="none" stroke="black" d="M444.978,-455.867C443.591,-447.543 442.128,-438.766 440.698,-430.185"/>
<polygon fill="black" stroke="black" points="444.137,-429.53 439.04,-420.241 437.232,-430.681 444.137,-429.53"/>
</g>
<!-- fc8 -->
<g id="node16" class="node"><title>fc8</title>
<polygon fill="#a3a3a3" stroke="none" points="336.5,-265 336.5,-288 512.5,-288 512.5,-265 336.5,-265"/>
<polygon fill="none" stroke="black" points="336.5,-265 336.5,-288 512.5,-288 512.5,-265 336.5,-265"/>
<text text-anchor="start" x="415.5" y="-272.8" font-family="Times,serif" font-size="14.00">fc8</text>
<polygon fill="#dddddd" stroke="none" points="336.5,-242 336.5,-265 512.5,-265 512.5,-242 336.5,-242"/>
<polygon fill="none" stroke="black" points="336.5,-242 336.5,-265 512.5,-265 512.5,-242 336.5,-242"/>
<text text-anchor="start" x="392" y="-249.8" font-family="Times,serif" font-size="14.00">(1000, 1, 1)</text>
<polygon fill="#adf0ed" stroke="none" points="336.5,-204 336.5,-242 412.5,-242 412.5,-204 336.5,-204"/>
<polygon fill="none" stroke="black" points="336.5,-204 336.5,-242 412.5,-242 412.5,-204 336.5,-204"/>
<text text-anchor="start" x="355" y="-226.8" font-family="Times,serif" font-size="14.00"> 8.192 </text>
<text text-anchor="start" x="340.5" y="-211.8" font-family="Times,serif" font-size="14.00"> (MFLOPs) </text>
<polygon fill="#f8d2f3" stroke="none" points="412.5,-204 412.5,-242 472.5,-242 472.5,-204 412.5,-204"/>
<polygon fill="none" stroke="black" points="412.5,-204 412.5,-242 472.5,-242 472.5,-204 412.5,-204"/>
<text text-anchor="start" x="416.5" y="-226.8" font-family="Times,serif" font-size="14.00"> 2612.47 </text>
<text text-anchor="start" x="418.5" y="-211.8" font-family="Times,serif" font-size="14.00"> (MB/s) </text>
<polygon fill="#ffffb9" stroke="none" points="472.5,-204 472.5,-242 512.5,-242 512.5,-204 472.5,-204"/>
<polygon fill="none" stroke="black" points="472.5,-204 472.5,-242 512.5,-242 512.5,-204 472.5,-204"/>
<text text-anchor="start" x="476.5" y="-226.8" font-family="Times,serif" font-size="14.00"> 2.99 </text>
<text text-anchor="start" x="477.5" y="-211.8" font-family="Times,serif" font-size="14.00"> (ms)</text>
</g>
<!-- fc7&#45;&gt;fc8 -->
<g id="edge17" class="edge"><title>fc7&#45;&gt;fc8</title>
<path fill="none" stroke="black" d="M428.993,-327.867C428.535,-319.634 428.053,-310.957 427.581,-302.465"/>
<polygon fill="black" stroke="black" points="431.063,-302.032 427.013,-292.241 424.074,-302.42 431.063,-302.032"/>
</g>
<!-- prob -->
<g id="node17" class="node"><title>prob</title>
<polygon fill="#a3a3a3" stroke="none" points="333.5,-137 333.5,-160 505.5,-160 505.5,-137 333.5,-137"/>
<polygon fill="none" stroke="black" points="333.5,-137 333.5,-160 505.5,-160 505.5,-137 333.5,-137"/>
<text text-anchor="start" x="407" y="-144.8" font-family="Times,serif" font-size="14.00">prob</text>
<polygon fill="#dddddd" stroke="none" points="333.5,-114 333.5,-137 505.5,-137 505.5,-114 333.5,-114"/>
<polygon fill="none" stroke="black" points="333.5,-114 333.5,-137 505.5,-137 505.5,-114 333.5,-114"/>
<text text-anchor="start" x="387" y="-121.8" font-family="Times,serif" font-size="14.00">(1000, 1, 1)</text>
<polygon fill="#b0f0ee" stroke="none" points="333.5,-76 333.5,-114 409.5,-114 409.5,-76 333.5,-76"/>
<polygon fill="none" stroke="black" points="333.5,-76 333.5,-114 409.5,-114 409.5,-76 333.5,-76"/>
<text text-anchor="start" x="352" y="-98.8" font-family="Times,serif" font-size="14.00"> 0.003 </text>
<text text-anchor="start" x="337.5" y="-83.8" font-family="Times,serif" font-size="14.00"> (MFLOPs) </text>
<polygon fill="#ffe5fc" stroke="none" points="409.5,-76 409.5,-114 465.5,-114 465.5,-76 409.5,-76"/>
<polygon fill="none" stroke="black" points="409.5,-76 409.5,-114 465.5,-114 465.5,-76 409.5,-76"/>
<text text-anchor="start" x="421.5" y="-98.8" font-family="Times,serif" font-size="14.00"> 9.42 </text>
<text text-anchor="start" x="413.5" y="-83.8" font-family="Times,serif" font-size="14.00"> (MB/s) </text>
<polygon fill="#ffffca" stroke="none" points="465.5,-76 465.5,-114 505.5,-114 505.5,-76 465.5,-76"/>
<polygon fill="none" stroke="black" points="465.5,-76 465.5,-114 505.5,-114 505.5,-76 465.5,-76"/>
<text text-anchor="start" x="469.5" y="-98.8" font-family="Times,serif" font-size="14.00"> 0.20 </text>
<text text-anchor="start" x="470.5" y="-83.8" font-family="Times,serif" font-size="14.00"> (ms)</text>
</g>
<!-- fc8&#45;&gt;prob -->
<g id="edge18" class="edge"><title>fc8&#45;&gt;prob</title>
<path fill="none" stroke="black" d="M422.709,-199.867C422.382,-191.634 422.038,-182.957 421.701,-174.465"/>
<polygon fill="black" stroke="black" points="425.189,-174.095 421.295,-164.241 418.195,-174.372 425.189,-174.095"/>
</g>
<!-- prob&#45;&gt;Output -->
<g id="edge20" class="edge"><title>prob&#45;&gt;Output</title>
<path fill="none" stroke="black" d="M390.397,-71.7292C384.431,-62.448 378.349,-52.9873 373.015,-44.6894"/>
<polygon fill="black" stroke="black" points="375.912,-42.7244 367.561,-36.2053 370.024,-46.5097 375.912,-42.7244"/>
</g>
<!-- Summary -->
<g id="node19" class="node"><title>Summary</title>
<polygon fill="#c60000" stroke="none" points="420.5,-1447.5 420.5,-1470.5 605.5,-1470.5 605.5,-1447.5 420.5,-1447.5"/>
<polygon fill="none" stroke="black" points="420.5,-1447.5 420.5,-1470.5 605.5,-1470.5 605.5,-1447.5 420.5,-1447.5"/>
<text text-anchor="start" x="485.5" y="-1455.3" font-family="Times,serif" font-size="14.00">Summary</text>
<polygon fill="#e2e2e2" stroke="none" points="420.5,-1424.5 420.5,-1447.5 605.5,-1447.5 605.5,-1424.5 420.5,-1424.5"/>
<polygon fill="none" stroke="black" points="420.5,-1424.5 420.5,-1447.5 605.5,-1447.5 605.5,-1424.5 420.5,-1424.5"/>
<text text-anchor="start" x="460" y="-1432.3" font-family="Times,serif" font-size="14.00">12 SHV Processors</text>
<polygon fill="#dadada" stroke="none" points="420.5,-1401.5 420.5,-1424.5 605.5,-1424.5 605.5,-1401.5 420.5,-1401.5"/>
<polygon fill="none" stroke="black" points="420.5,-1401.5 420.5,-1424.5 605.5,-1424.5 605.5,-1401.5 420.5,-1401.5"/>
<text text-anchor="start" x="445.5" y="-1409.3" font-family="Times,serif" font-size="14.00">Inference time 72.59 ms</text>
<polygon fill="#e2e2e2" stroke="none" points="420.5,-1378.5 420.5,-1401.5 605.5,-1401.5 605.5,-1378.5 420.5,-1378.5"/>
<polygon fill="none" stroke="black" points="420.5,-1378.5 420.5,-1401.5 605.5,-1401.5 605.5,-1378.5 420.5,-1378.5"/>
<text text-anchor="start" x="436" y="-1386.3" font-family="Times,serif" font-size="14.00">Bandwidth 1670.63 MB/sec</text>
<polygon fill="#dadada" stroke="none" points="420.5,-1355.5 420.5,-1378.5 605.5,-1378.5 605.5,-1355.5 420.5,-1355.5"/>
<polygon fill="none" stroke="black" points="420.5,-1355.5 420.5,-1378.5 605.5,-1378.5 605.5,-1355.5 420.5,-1355.5"/>
<text text-anchor="start" x="424.5" y="-1363.3" font-family="Times,serif" font-size="14.00">This network is Compute bound</text>
</g>
</g>
</svg>
